<mxfile host="app.diagrams.net" modified="2021-06-24T07:42:38.212Z" agent="5.0 (Windows NT 10.0; Win64; x64) AppleWebKit/537.36 (KHTML, like Gecko) Chrome/91.0.4472.77 Safari/537.36" etag="evEXIJthNxY_7w7pt_6F" version="14.6.3" type="github">
  <diagram id="xMSZvhlSKrlTsSdrJuUR" name="Page-1">
    <mxGraphModel dx="1707" dy="425" grid="1" gridSize="10" guides="1" tooltips="1" connect="1" arrows="1" fold="1" page="1" pageScale="1" pageWidth="827" pageHeight="1169" math="0" shadow="0">
      <root>
        <mxCell id="0" />
        <mxCell id="1" parent="0" />
        <mxCell id="VrhXrAAlnZPNjtae-lk7-20" value="" style="group" parent="1" vertex="1" connectable="0">
          <mxGeometry x="50" y="60" width="150" height="240" as="geometry" />
        </mxCell>
        <mxCell id="VrhXrAAlnZPNjtae-lk7-1" value="Application" style="rounded=0;whiteSpace=wrap;html=1;fillColor=#f5f5f5;strokeColor=#666666;fontColor=#333333;" parent="VrhXrAAlnZPNjtae-lk7-20" vertex="1">
          <mxGeometry width="150" height="40" as="geometry" />
        </mxCell>
        <mxCell id="VrhXrAAlnZPNjtae-lk7-2" value="Socket API" style="rounded=0;whiteSpace=wrap;html=1;fillColor=#f5f5f5;strokeColor=#666666;fontColor=#333333;" parent="VrhXrAAlnZPNjtae-lk7-20" vertex="1">
          <mxGeometry y="50" width="150" height="40" as="geometry" />
        </mxCell>
        <mxCell id="VrhXrAAlnZPNjtae-lk7-3" value="TCP/IP stack" style="rounded=0;whiteSpace=wrap;html=1;fillColor=#f5f5f5;strokeColor=#666666;fontColor=#333333;" parent="VrhXrAAlnZPNjtae-lk7-20" vertex="1">
          <mxGeometry y="100" width="150" height="40" as="geometry" />
        </mxCell>
        <mxCell id="VrhXrAAlnZPNjtae-lk7-4" value="Driver" style="rounded=0;whiteSpace=wrap;html=1;fillColor=#f5f5f5;strokeColor=#666666;fontColor=#333333;" parent="VrhXrAAlnZPNjtae-lk7-20" vertex="1">
          <mxGeometry y="150" width="150" height="40" as="geometry" />
        </mxCell>
        <mxCell id="VrhXrAAlnZPNjtae-lk7-5" value="NIC" style="rounded=0;whiteSpace=wrap;html=1;fillColor=#f5f5f5;strokeColor=#666666;fontColor=#333333;" parent="VrhXrAAlnZPNjtae-lk7-20" vertex="1">
          <mxGeometry y="200" width="150" height="40" as="geometry" />
        </mxCell>
        <mxCell id="VrhXrAAlnZPNjtae-lk7-21" value="" style="group" parent="1" vertex="1" connectable="0">
          <mxGeometry x="220" y="60" width="150" height="240" as="geometry" />
        </mxCell>
        <mxCell id="VrhXrAAlnZPNjtae-lk7-6" value="Application" style="rounded=0;whiteSpace=wrap;html=1;fillColor=#fff2cc;strokeColor=#d6b656;" parent="VrhXrAAlnZPNjtae-lk7-21" vertex="1">
          <mxGeometry width="150" height="40" as="geometry" />
        </mxCell>
        <mxCell id="VrhXrAAlnZPNjtae-lk7-7" value="DPDK" style="rounded=0;whiteSpace=wrap;html=1;fillColor=#dae8fc;strokeColor=#6c8ebf;" parent="VrhXrAAlnZPNjtae-lk7-21" vertex="1">
          <mxGeometry y="50" width="150" height="40" as="geometry" />
        </mxCell>
        <mxCell id="VrhXrAAlnZPNjtae-lk7-41" style="edgeStyle=orthogonalEdgeStyle;rounded=0;orthogonalLoop=1;jettySize=auto;html=1;exitX=0.5;exitY=0;exitDx=0;exitDy=0;entryX=0.5;entryY=1;entryDx=0;entryDy=0;endArrow=none;endFill=0;" parent="VrhXrAAlnZPNjtae-lk7-21" source="VrhXrAAlnZPNjtae-lk7-8" target="VrhXrAAlnZPNjtae-lk7-7" edge="1">
          <mxGeometry relative="1" as="geometry" />
        </mxCell>
        <mxCell id="VrhXrAAlnZPNjtae-lk7-8" value="NIC" style="rounded=0;whiteSpace=wrap;html=1;fillColor=#f5f5f5;strokeColor=#666666;fontColor=#333333;" parent="VrhXrAAlnZPNjtae-lk7-21" vertex="1">
          <mxGeometry y="200" width="150" height="40" as="geometry" />
        </mxCell>
        <mxCell id="VrhXrAAlnZPNjtae-lk7-36" value="" style="endArrow=none;html=1;" parent="VrhXrAAlnZPNjtae-lk7-21" edge="1">
          <mxGeometry width="50" height="50" relative="1" as="geometry">
            <mxPoint x="-10" y="100" as="sourcePoint" />
            <mxPoint x="570" y="100" as="targetPoint" />
          </mxGeometry>
        </mxCell>
        <mxCell id="VrhXrAAlnZPNjtae-lk7-22" value="" style="group" parent="1" vertex="1" connectable="0">
          <mxGeometry x="390" y="60" width="150" height="240" as="geometry" />
        </mxCell>
        <mxCell id="VrhXrAAlnZPNjtae-lk7-9" value="Application" style="rounded=0;whiteSpace=wrap;html=1;fillColor=#fff2cc;strokeColor=#d6b656;" parent="VrhXrAAlnZPNjtae-lk7-22" vertex="1">
          <mxGeometry width="150" height="40" as="geometry" />
        </mxCell>
        <mxCell id="VrhXrAAlnZPNjtae-lk7-10" value="Onload/TCPDirect/EF_VI" style="rounded=0;whiteSpace=wrap;html=1;fillColor=#dae8fc;strokeColor=#6c8ebf;" parent="VrhXrAAlnZPNjtae-lk7-22" vertex="1">
          <mxGeometry y="50" width="150" height="40" as="geometry" />
        </mxCell>
        <mxCell id="VrhXrAAlnZPNjtae-lk7-42" style="edgeStyle=orthogonalEdgeStyle;rounded=0;orthogonalLoop=1;jettySize=auto;html=1;exitX=0.5;exitY=0;exitDx=0;exitDy=0;entryX=0.5;entryY=1;entryDx=0;entryDy=0;endArrow=none;endFill=0;" parent="VrhXrAAlnZPNjtae-lk7-22" source="VrhXrAAlnZPNjtae-lk7-11" target="VrhXrAAlnZPNjtae-lk7-10" edge="1">
          <mxGeometry relative="1" as="geometry" />
        </mxCell>
        <mxCell id="VrhXrAAlnZPNjtae-lk7-11" value="Solarflare" style="rounded=0;whiteSpace=wrap;html=1;fillColor=#dae8fc;strokeColor=#6c8ebf;" parent="VrhXrAAlnZPNjtae-lk7-22" vertex="1">
          <mxGeometry y="200" width="150" height="40" as="geometry" />
        </mxCell>
        <mxCell id="VrhXrAAlnZPNjtae-lk7-23" value="" style="group" parent="1" vertex="1" connectable="0">
          <mxGeometry x="560" y="60" width="150" height="240" as="geometry" />
        </mxCell>
        <mxCell id="VrhXrAAlnZPNjtae-lk7-12" value="Application" style="rounded=0;whiteSpace=wrap;html=1;fillColor=#fff2cc;strokeColor=#d6b656;" parent="VrhXrAAlnZPNjtae-lk7-23" vertex="1">
          <mxGeometry width="150" height="40" as="geometry" />
        </mxCell>
        <mxCell id="VrhXrAAlnZPNjtae-lk7-13" value="VMA/ExaSOCX" style="rounded=0;whiteSpace=wrap;html=1;fillColor=#dae8fc;strokeColor=#6c8ebf;" parent="VrhXrAAlnZPNjtae-lk7-23" vertex="1">
          <mxGeometry y="50" width="150" height="40" as="geometry" />
        </mxCell>
        <mxCell id="VrhXrAAlnZPNjtae-lk7-43" style="edgeStyle=orthogonalEdgeStyle;rounded=0;orthogonalLoop=1;jettySize=auto;html=1;exitX=0.5;exitY=0;exitDx=0;exitDy=0;entryX=0.5;entryY=1;entryDx=0;entryDy=0;endArrow=none;endFill=0;" parent="VrhXrAAlnZPNjtae-lk7-23" source="VrhXrAAlnZPNjtae-lk7-14" target="VrhXrAAlnZPNjtae-lk7-13" edge="1">
          <mxGeometry relative="1" as="geometry" />
        </mxCell>
        <mxCell id="VrhXrAAlnZPNjtae-lk7-14" value="Mellanox/Exablaze" style="rounded=0;whiteSpace=wrap;html=1;fillColor=#dae8fc;strokeColor=#6c8ebf;" parent="VrhXrAAlnZPNjtae-lk7-23" vertex="1">
          <mxGeometry y="200" width="150" height="40" as="geometry" />
        </mxCell>
        <mxCell id="VrhXrAAlnZPNjtae-lk7-24" value="" style="endArrow=none;dashed=1;html=1;fillColor=#f8cecc;strokeColor=#FF0000;" parent="1" edge="1">
          <mxGeometry width="50" height="50" relative="1" as="geometry">
            <mxPoint x="210" y="320" as="sourcePoint" />
            <mxPoint x="210" y="20" as="targetPoint" />
          </mxGeometry>
        </mxCell>
        <mxCell id="VrhXrAAlnZPNjtae-lk7-25" value="" style="endArrow=none;html=1;" parent="1" edge="1">
          <mxGeometry width="50" height="50" relative="1" as="geometry">
            <mxPoint x="-30" y="105" as="sourcePoint" />
            <mxPoint x="210" y="105" as="targetPoint" />
          </mxGeometry>
        </mxCell>
        <mxCell id="VrhXrAAlnZPNjtae-lk7-26" value="User space" style="text;html=1;strokeColor=none;fillColor=none;align=center;verticalAlign=middle;whiteSpace=wrap;rounded=0;" parent="1" vertex="1">
          <mxGeometry x="-27" y="71" width="70" height="20" as="geometry" />
        </mxCell>
        <mxCell id="VrhXrAAlnZPNjtae-lk7-27" value="" style="endArrow=none;html=1;" parent="1" edge="1">
          <mxGeometry width="50" height="50" relative="1" as="geometry">
            <mxPoint x="-30" y="255" as="sourcePoint" />
            <mxPoint x="790" y="255" as="targetPoint" />
          </mxGeometry>
        </mxCell>
        <mxCell id="VrhXrAAlnZPNjtae-lk7-28" value="Kernel space" style="text;html=1;strokeColor=none;fillColor=none;align=center;verticalAlign=middle;whiteSpace=wrap;rounded=0;" parent="1" vertex="1">
          <mxGeometry x="-28.5" y="170" width="73" height="20" as="geometry" />
        </mxCell>
        <mxCell id="VrhXrAAlnZPNjtae-lk7-29" value="Hardware" style="text;html=1;strokeColor=none;fillColor=none;align=center;verticalAlign=middle;whiteSpace=wrap;rounded=0;" parent="1" vertex="1">
          <mxGeometry x="-12" y="270" width="40" height="20" as="geometry" />
        </mxCell>
        <mxCell id="VrhXrAAlnZPNjtae-lk7-30" value="" style="endArrow=none;html=1;" parent="1" edge="1">
          <mxGeometry width="50" height="50" relative="1" as="geometry">
            <mxPoint x="-28.5" y="50" as="sourcePoint" />
            <mxPoint x="790" y="50" as="targetPoint" />
          </mxGeometry>
        </mxCell>
        <mxCell id="VrhXrAAlnZPNjtae-lk7-31" value="" style="endArrow=none;dashed=1;html=1;" parent="1" edge="1">
          <mxGeometry width="50" height="50" relative="1" as="geometry">
            <mxPoint x="380" y="320" as="sourcePoint" />
            <mxPoint x="380" y="20" as="targetPoint" />
          </mxGeometry>
        </mxCell>
        <mxCell id="VrhXrAAlnZPNjtae-lk7-32" value="" style="endArrow=none;dashed=1;html=1;" parent="1" edge="1">
          <mxGeometry width="50" height="50" relative="1" as="geometry">
            <mxPoint x="550" y="320" as="sourcePoint" />
            <mxPoint x="550" y="20" as="targetPoint" />
          </mxGeometry>
        </mxCell>
        <mxCell id="VrhXrAAlnZPNjtae-lk7-33" value="Linux Kernel Network" style="text;html=1;strokeColor=none;fillColor=none;align=center;verticalAlign=middle;whiteSpace=wrap;rounded=0;" parent="1" vertex="1">
          <mxGeometry x="65" y="27" width="120" height="20" as="geometry" />
        </mxCell>
        <mxCell id="VrhXrAAlnZPNjtae-lk7-35" value="DPDK Accelerated" style="text;html=1;strokeColor=none;fillColor=none;align=center;verticalAlign=middle;whiteSpace=wrap;rounded=0;" parent="1" vertex="1">
          <mxGeometry x="235" y="27" width="120" height="20" as="geometry" />
        </mxCell>
        <mxCell id="VrhXrAAlnZPNjtae-lk7-37" value="User space" style="text;html=1;strokeColor=none;fillColor=none;align=center;verticalAlign=middle;whiteSpace=wrap;rounded=0;" parent="1" vertex="1">
          <mxGeometry x="715" y="94" width="67" height="20" as="geometry" />
        </mxCell>
        <mxCell id="VrhXrAAlnZPNjtae-lk7-38" value="Hardware" style="text;html=1;strokeColor=none;fillColor=none;align=center;verticalAlign=middle;whiteSpace=wrap;rounded=0;" parent="1" vertex="1">
          <mxGeometry x="728.5" y="270" width="40" height="20" as="geometry" />
        </mxCell>
        <mxCell id="VrhXrAAlnZPNjtae-lk7-39" value="Solarflare Accelerated" style="text;html=1;strokeColor=none;fillColor=none;align=center;verticalAlign=middle;whiteSpace=wrap;rounded=0;" parent="1" vertex="1">
          <mxGeometry x="405" y="27" width="125" height="20" as="geometry" />
        </mxCell>
        <mxCell id="VrhXrAAlnZPNjtae-lk7-40" value="Mellanox/Exablaze Accelerated" style="text;html=1;strokeColor=none;fillColor=none;align=center;verticalAlign=middle;whiteSpace=wrap;rounded=0;" parent="1" vertex="1">
          <mxGeometry x="572.5" y="24" width="125" height="20" as="geometry" />
        </mxCell>
      </root>
    </mxGraphModel>
  </diagram>
</mxfile>
